<svg width="30" height="30" viewBox="0 0 30 30" fill="none" xmlns="http://www.w3.org/2000/svg">
<path opacity="0.4" fill-rule="evenodd" clip-rule="evenodd" d="M11.1838 6.35193H18.8621V4.56416H11.1838V6.35193ZM9.43707 4.63757V4.64647C8.83768 4.70098 8.24473 4.82002 7.66786 4.99913V4.99246C7.65071 4.99967 7.63457 5.00522 7.61907 5.01055C7.59873 5.01754 7.57951 5.02415 7.56064 5.03362C7.51453 5.04474 7.4695 5.06143 7.42661 5.08257C7.30008 5.12373 7.17356 5.17268 7.05454 5.22274C7.02291 5.23498 6.99128 5.24916 6.95965 5.26335C6.92801 5.27753 6.89638 5.29172 6.86475 5.30395C6.82133 5.32454 6.77602 5.34706 6.73072 5.36959C6.68542 5.39212 6.64012 5.41465 6.59669 5.43523L6.38224 5.55871C6.34259 5.57894 6.30589 5.60265 6.26844 5.62685C6.24614 5.64126 6.22357 5.65585 6.19996 5.66996C5.87721 5.878 5.57806 6.12163 5.30785 6.39865L5.29177 6.41533C5.25628 6.4567 5.22094 6.49684 5.18608 6.53644C5.1272 6.60332 5.06968 6.66865 5.01513 6.73573L4.99905 6.7513C4.12195 7.96169 3.68233 9.45354 3.75846 10.9654V11.4449H5.49013V10.961C5.49013 8.85391 6.16136 7.54229 7.655 6.87034C8.22543 6.62893 8.82803 6.47986 9.44136 6.42534H9.45744V4.64536L9.43707 4.63757ZM24.9975 6.72906L25.005 6.74463C25.881 7.95613 26.3185 9.44909 26.2413 10.961V11.4449H24.5107V10.9487C24.5471 10.0565 24.3681 9.16875 23.9885 8.36664C23.6239 7.68024 23.0406 7.14735 22.3362 6.8581C21.7754 6.61669 21.1814 6.46651 20.5755 6.41311V4.64202C21.1749 4.69765 21.7679 4.81557 22.3458 4.99468V4.98578C22.3783 5.00052 22.4031 5.00928 22.4456 5.02431L22.453 5.02695C22.4728 5.03392 22.4912 5.0409 22.5094 5.0478C22.5347 5.0574 22.5596 5.06683 22.5871 5.07589C22.7056 5.11479 22.8165 5.16063 22.9306 5.2078L22.9506 5.21607C23.0032 5.23456 23.0528 5.25748 23.0975 5.27814C23.1119 5.28484 23.1259 5.29129 23.1393 5.29728C23.2336 5.33844 23.3301 5.38739 23.4073 5.42855C23.4588 5.45527 23.509 5.48386 23.556 5.51068C23.5814 5.52518 23.606 5.53916 23.6293 5.55204C23.6677 5.57326 23.7011 5.59596 23.7332 5.61778C23.7567 5.63373 23.7795 5.6492 23.803 5.66329C24.1268 5.87244 24.4292 6.11719 24.7026 6.39197L24.7123 6.40866C24.813 6.5099 24.9085 6.61669 24.9975 6.72906Z" fill="#5669FF"/>
<path d="M20.625 3.39618V7.33559C20.625 7.83195 20.2223 8.23398 19.725 8.23398C19.2278 8.23398 18.825 7.83195 18.825 7.33559V3.40516C18.8205 2.9088 19.221 2.50341 19.7183 2.50004C20.2155 2.49667 20.6217 2.89533 20.625 3.39168V3.39618Z" fill="#5669FF"/>
<path d="M11.175 3.41045V7.34013C11.175 7.83864 10.7718 8.24284 10.2744 8.24284C9.77712 8.24284 9.375 7.83864 9.375 7.34013V3.41045C9.375 2.91195 9.77712 2.50887 10.2744 2.50887C10.7718 2.50887 11.175 2.91195 11.175 3.41045Z" fill="#5669FF"/>
<path fill-rule="evenodd" clip-rule="evenodd" d="M3.75 21.1377V11.4449H26.25V21.1377C26.25 25.3645 23.8895 27.5 19.2114 27.5H10.7779C6.11052 27.5 3.75 25.3645 3.75 21.1377ZM8.82513 16.8335C8.82513 17.4199 9.2865 17.8957 9.85517 17.8957C10.4346 17.8957 10.8959 17.4088 10.8852 16.8224C10.8852 16.236 10.4238 15.7602 9.8659 15.7602H9.85517C9.2865 15.7602 8.82513 16.247 8.82513 16.8335ZM13.9646 16.8335C13.9646 17.4199 14.4367 17.8957 15.0054 17.8957C15.574 17.8957 16.0354 17.4199 16.0354 16.8224C16.0354 16.247 15.574 15.7712 15.0054 15.7602H14.9946C14.426 15.7712 13.9646 16.247 13.9646 16.8335ZM20.1449 17.8957C19.5762 17.8957 19.1148 17.4199 19.1148 16.8335C19.1148 16.247 19.5655 15.7713 20.1449 15.7713C20.7135 15.7713 21.1749 16.247 21.1749 16.8335C21.1749 17.4199 20.7135 17.8957 20.1449 17.8957ZM20.1449 22.4323C19.5762 22.4323 19.1148 21.9565 19.1041 21.3701C19.1041 20.7836 19.5655 20.3078 20.1341 20.3078H20.1449C20.7135 20.3078 21.1749 20.7836 21.1749 21.3701C21.1749 21.9565 20.7135 22.4323 20.1449 22.4323ZM15.0054 22.4323C14.4367 22.4323 13.9646 21.9565 13.9646 21.3701C13.9646 20.7836 14.426 20.3078 14.9946 20.2968H15.0054C15.574 20.3078 16.0247 20.7836 16.0354 21.359C16.0354 21.9565 15.574 22.4323 15.0054 22.4323ZM9.85515 22.4323C9.28648 22.4323 8.82511 21.9565 8.82511 21.3701C8.81438 20.7836 9.27575 20.2968 9.85515 20.2968C10.4238 20.2968 10.8852 20.7726 10.8852 21.359C10.8852 21.9454 10.4238 22.4323 9.85515 22.4323Z" fill="#5669FF"/>
</svg>
